<?xml version="1.0" standalone="no"?>
<!DOCTYPE svg PUBLIC "-//W3C//DTD SVG 20010904//EN"
 "http://www.w3.org/TR/2001/REC-SVG-20010904/DTD/svg10.dtd">
<svg version="1.0" xmlns="http://www.w3.org/2000/svg"
 width="485.000000pt" height="485.000000pt" viewBox="0 0 485.000000 485.000000"
 preserveAspectRatio="xMidYMid meet">
<metadata>
Created by potrace 1.11, written by Peter Selinger 2001-2013
</metadata>
<g transform="translate(0.000000,485.000000) scale(0.100000,-0.100000)"
fill="#000000" stroke="none">
<path d="M1992 4686 l-162 -162 0 -344 0 -345 -196 -194 -195 -194 -40 39
c-23 21 -57 55 -77 75 l-37 36 1 272 c0 149 -2 272 -5 272 -3 1 -158 3 -343 4
-236 1 -335 -2 -330 -9 3 -6 103 -109 222 -229 118 -120 335 -341 483 -490
l267 -272 -608 -3 -608 -2 0 -323 1 -322 170 -1 170 -1 0 -327 0 -326 973 0
972 0 0 -527 0 -527 -330 333 -330 333 0 -504 0 -504 333 0 334 0 -2 165 -1
166 133 135 133 135 515 -515 c283 -283 518 -516 523 -518 4 -1 8 360 8 803
l1 805 -242 0 -242 0 -84 -85 c-45 -47 -85 -85 -88 -85 -5 0 -6 349 -2 383 1
4 201 7 446 7 245 0 445 2 445 5 0 2 -186 191 -413 420 l-413 415 -125 0 -126
0 1 50 c1 28 5 50 11 51 5 1 210 2 455 2 l445 2 228 228 227 227 0 453 0 453
-535 0 -535 -1 -138 -142 c-76 -79 -141 -143 -145 -143 -3 0 -38 32 -77 70
l-70 71 160 158 160 158 -2 264 -3 264 -575 1 -576 2 -162 -162z m616 -1558
c-2 -4 -141 -147 -310 -318 l-308 -311 0 -327 0 -327 -321 323 -321 324 45 46
c26 26 169 171 319 322 l273 276 313 0 c172 0 311 -3 310 -8z m-1278 -628 c0
-3 -138 -5 -307 -4 l-308 0 -3 314 -2 314 310 -309 c170 -171 310 -312 310
-315z m1316 -13 c2 -2 3 -145 2 -316 l-3 -313 -240 235 c-132 128 -278 270
-324 315 l-84 80 34 4 c49 4 610 0 615 -5z m654 -177 c1 -91 1 -232 1 -315
l-1 -150 -317 2 c-175 0 -318 1 -319 2 -2 2 630 630 633 628 1 -2 3 -77 3
-167z"/>
</g>
</svg>
